<?xml version="1.0" encoding="utf-8"?>
<!-- Generator: Adobe Illustrator 27.9.1, SVG Export Plug-In . SVG Version: 6.00 Build 0)  -->
<svg version="1.1" id="Layer_2_1_" xmlns="http://www.w3.org/2000/svg" xmlns:xlink="http://www.w3.org/1999/xlink" x="0px" y="0px"
	 viewBox="0 0 280 75" style="enable-background:new 0 0 280 75;" xml:space="preserve">
<style type="text/css">
	.st0{clip-path:url(#SVGID_00000042718241266176235910000012606513854161817521_);}
	.st1{clip-path:url(#SVGID_00000091737187416218537610000012595198946103904132_);fill:#272E87;}
	.st2{clip-path:url(#SVGID_00000091737187416218537610000012595198946103904132_);fill:#F7A500;}
	.st3{clip-path:url(#SVGID_00000091737187416218537610000012595198946103904132_);fill:#FFFFFF;}
</style>
<g>
	<g>
		<defs>
			<rect id="SVGID_1_" x="3" y="2.5" width="113.3" height="70"/>
		</defs>
		<clipPath id="SVGID_00000174586037665349092110000007763587351910249618_">
			<use xlink:href="#SVGID_1_"  style="overflow:visible;"/>
		</clipPath>
		<g style="clip-path:url(#SVGID_00000174586037665349092110000007763587351910249618_);">
			<defs>
				<rect id="SVGID_00000181769307882646531350000001241538144900583849_" x="3" y="2.5" width="113.3" height="70"/>
			</defs>
			<clipPath id="SVGID_00000166662415885791803430000014467461326461368740_">
				<use xlink:href="#SVGID_00000181769307882646531350000001241538144900583849_"  style="overflow:visible;"/>
			</clipPath>
			<path style="clip-path:url(#SVGID_00000166662415885791803430000014467461326461368740_);fill:#272E87;" d="M104.3,61.7H5.2V13.2
				h99.1v0c5.4,0,9.7,4.3,9.7,9.7V52C114,57.4,109.7,61.7,104.3,61.7L104.3,61.7z"/>
			<path style="clip-path:url(#SVGID_00000166662415885791803430000014467461326461368740_);fill:#F7A500;" d="M104.3,59.3
				c4,0,7.3-3.3,7.3-7.3l0-29.1c0-4-3.2-7.3-7.2-7.3H7.6v43.7H104.3z"/>
			<path style="clip-path:url(#SVGID_00000166662415885791803430000014467461326461368740_);fill:#272E87;" d="M5.2,13.2
				c0-5.4,4.3-9.7,9.7-9.7h1.8l16,0c4.5,0,9.5,3.4,11.1,7.6l7.4,19.2c1.5,3.8,1.4,10.7,0,14.5L44,63.9c-1.6,4.2-6.6,7.6-11,7.6
				l-16.2,0l-1.8,0c-5.4,0-9.7-4.3-9.7-9.7V13.2L5.2,13.2z"/>
			<path style="clip-path:url(#SVGID_00000166662415885791803430000014467461326461368740_);fill:#FFFFFF;" d="M32.2,33.9
				c0-2.5-1.2-4.1-4.6-4.1c-1.9,0-4.6,0.9-4.6,1.4c0,0.1,0,0.2,0.1,0.4l0.4,1c0,0.1,0.1,0.1,0.2,0.1c0.3,0,1.6-0.9,3.6-0.9
				c2.1,0,2.6,0.9,2.6,2.7v1.1c-1.8,0.1-7.7,0.1-7.7,5.1c0,2.6,1.5,4.2,3.8,4.2c3.5,0,6.2-0.6,6.2-4.6V33.9z M29.9,41.5
				c0,0.9-1.8,1.3-3.4,1.3c-1.5,0-2.2-1.2-2.2-2.4c0-3.1,4.2-3.1,5.5-3.1V41.5"/>
			<path style="clip-path:url(#SVGID_00000166662415885791803430000014467461326461368740_);fill:#272E87;" d="M100.1,33.9
				c0-2.5-1.2-4.1-4.6-4.1c-1.9,0-4.6,0.9-4.6,1.4c0,0.1,0,0.2,0.1,0.4l0.4,1c0,0.1,0.1,0.1,0.2,0.1c0.3,0,1.6-0.9,3.6-0.9
				c2.1,0,2.6,0.9,2.6,2.7v1.1c-1.8,0.1-7.7,0.1-7.7,5.1c0,2.6,1.5,4.2,3.8,4.2c3.5,0,6.2-0.6,6.2-4.6V33.9z M97.8,41.5
				c0,0.9-1.8,1.3-3.4,1.3c-1.5,0-2.2-1.2-2.2-2.4c0-3.1,4.2-3.1,5.5-3.1V41.5"/>
			<path style="clip-path:url(#SVGID_00000166662415885791803430000014467461326461368740_);fill:#FFFFFF;" d="M10.1,50.2
				c0,0.1,0,0.4,0.2,0.4c0.2,0,0.1,0,0.4-0.1l1.5-0.4c0.1,0,0.2-0.1,0.2-0.4v-6c0.8,0.5,1.8,1,3.6,1c3.4,0,4.9-3.5,4.9-7.8
				c0-3.7-1.4-7.2-4.6-7.2c-3.2,0-6.2,1.4-6.2,5.1V50.2z M12.3,34.3c0-0.7,0.2-2.6,3.5-2.6c2.4,0,2.6,2.8,2.6,5.3
				c0,2.9-0.2,5.8-2.8,5.8c-1.5,0-2.4-0.5-3.3-1C12.3,41.8,12.3,35.4,12.3,34.3"/>
			<path style="clip-path:url(#SVGID_00000166662415885791803430000014467461326461368740_);fill:#FFFFFF;" d="M42.9,43.6
				c-0.8,0.5-1.9,1.1-3.7,1.1c-3.4,0-4.9-3.5-4.9-7.7v-7c0-0.2,0.1-0.4,0.4-0.4h1.5c0.3,0,0.4,0.2,0.4,0.4l0,6.8
				c0,2.9,0.4,5.8,3,5.8c1.5,0,2.4-0.5,3.3-1c0,0,0-6.4,0-7.5v-4.2c0-0.2,0.1-0.4,0.4-0.4h1.5c0.3,0,0.4,0.2,0.4,0.4v4.7v6.5
				c0,4.2,0,5.8-0.4,7.9c-0.2,1.4-1.4,2.6-3,3.1c-1.6,0.4-3.9,0-4-0.5c0-0.1,0-0.1,0-0.2l0.3-1.3c0-0.1,0.1-0.2,0.2-0.2
				c0.3-0.1,1.6,0.8,3,0.4c1.1-0.3,1.6-1.5,1.7-3L42.9,43.6z"/>
			<path style="clip-path:url(#SVGID_00000166662415885791803430000014467461326461368740_);fill:#272E87;" d="M65.6,23.3
				c0-0.1,0-0.4-0.2-0.4c-0.2,0-0.1,0-0.4,0.1l-1.5,0.4c-0.1,0-0.2,0.1-0.2,0.4v7c-0.8-0.5-1.8-1-3.6-1c-3.4,0-4.9,3.5-4.9,7.8
				c0,3.7,1.5,7.2,4.6,7.2c3.3,0,6.2-1.4,6.2-5.1V23.3z M63.3,40.2c0,0.7-0.2,2.6-3.5,2.6c-2.4,0-2.6-2.8-2.6-5.3
				c0-2.9,0.2-5.8,2.8-5.8c1.5,0,2.4,0.5,3.3,1C63.3,32.7,63.3,39,63.3,40.2"/>
			<path style="clip-path:url(#SVGID_00000166662415885791803430000014467461326461368740_);fill:#272E87;" d="M79.1,37.1
				c0-4.2-1.7-7.4-5.8-7.4c-4.3,0-6,3.5-6,7.6c0,4.2,1.7,7.5,5.7,7.5C77.4,44.7,79.1,41.3,79.1,37.1 M73.2,42.9
				c-2.7,0-3.5-2.5-3.5-5.9c0-2.9,0.8-5.5,3.5-5.5c2.7,0,3.5,2.7,3.5,5.6C76.7,40.5,75.9,42.9,73.2,42.9"/>
			<path style="clip-path:url(#SVGID_00000166662415885791803430000014467461326461368740_);fill:#272E87;" d="M83.2,44
				c0,0.2-0.1,0.4-0.4,0.4h-1.5c-0.2,0-0.4-0.1-0.4-0.4V23.7c0-0.2,0.1-0.3,0.2-0.4l1.5-0.4c0.2-0.1,0.1,0,0.4-0.1
				c0.2,0,0.2,0.2,0.2,0.4V44z"/>
			<path style="clip-path:url(#SVGID_00000166662415885791803430000014467461326461368740_);fill:#272E87;" d="M88.1,44
				c0,0.2-0.1,0.4-0.4,0.4h-1.5c-0.2,0-0.4-0.1-0.4-0.4V23.7c0-0.2,0.1-0.3,0.2-0.4l1.5-0.4c0.2-0.1,0.1,0,0.4-0.1
				c0.2,0,0.2,0.2,0.2,0.4V44z"/>
			<path style="clip-path:url(#SVGID_00000166662415885791803430000014467461326461368740_);fill:#272E87;" d="M104.5,44
				c0,0.2-0.1,0.4-0.4,0.4h-1.5c-0.2,0-0.4-0.1-0.4-0.4V33.8c0-3.5,3.8-4.1,5.5-4.1c0.7,0,1.5,0.2,1.5,0.5c0,0.1-0.1,0.2-0.1,0.2
				l-0.6,1.3c0,0.1,0,0.2-0.2,0.2c-0.1,0-0.4-0.2-1.1-0.2c-1,0-2.8,0-2.8,2V44z"/>
			<path style="clip-path:url(#SVGID_00000166662415885791803430000014467461326461368740_);fill:#272E87;" d="M79.1,37.1
				c0-4.2-1.7-7.4-5.8-7.4c-4.3,0-6,3.5-6,7.6c0,4.2,1.7,7.5,5.7,7.5C77.4,44.7,79.1,41.3,79.1,37.1 M73.2,42.9
				c-2.7,0-3.5-2.5-3.5-5.9c0-2.9,0.8-5.5,3.5-5.5c2.7,0,3.5,2.7,3.5,5.6C76.7,40.5,75.9,42.9,73.2,42.9"/>
			<path style="clip-path:url(#SVGID_00000166662415885791803430000014467461326461368740_);fill:#272E87;" d="M83.2,44
				c0,0.2-0.1,0.4-0.4,0.4h-1.5c-0.2,0-0.4-0.1-0.4-0.4V23.7c0-0.2,0.1-0.3,0.2-0.4l1.5-0.4c0.2-0.1,0.1,0,0.4-0.1
				c0.2,0,0.2,0.2,0.2,0.4V44z"/>
			<path style="clip-path:url(#SVGID_00000166662415885791803430000014467461326461368740_);fill:#272E87;" d="M88.1,44
				c0,0.2-0.1,0.4-0.4,0.4h-1.5c-0.2,0-0.4-0.1-0.4-0.4V23.7c0-0.2,0.1-0.3,0.2-0.4l1.5-0.4c0.2-0.1,0.1,0,0.4-0.1
				c0.2,0,0.2,0.2,0.2,0.4V44z"/>
		</g>
	</g>
</g>
</svg>
