<svg clip-rule="evenodd" fill-rule="evenodd" stroke-linejoin="round" stroke-miterlimit="2" viewBox="0 0 510 510" xmlns="http://www.w3.org/2000/svg"><path d="m310.832 307.784c-.213 11.717-9.779 21.15-21.547 21.15h-104.767c-11.902 0-21.551-9.648-21.551-21.551v-104.766c0-11.903 9.649-21.551 21.551-21.551h104.767c11.902 0 21.551 9.648 21.551 21.551v2.61h34.271v-82.676h-17.121c-3.096 11.72-13.779 20.371-26.467 20.371-15.106 0-27.371-12.264-27.371-27.371 0-15.106 12.265-27.371 27.371-27.371 12.688 0 23.371 8.651 26.467 20.371h24.121c3.866 0 7 3.134 7 7v96.676c0 3.866-3.134 7-7 7h-41.271v35.323h84.42v-132.904c-11.72-3.096-20.371-13.779-20.371-26.466 0-15.107 12.264-27.371 27.371-27.371s27.371 12.264 27.371 27.371c0 12.687-8.651 23.37-20.371 26.466v61.887h41.802c3.058-10.926 13.096-18.949 24.993-18.949 14.321 0 25.949 11.628 25.949 25.949 0 14.322-11.628 25.95-25.949 25.95-11.897 0-21.935-8.023-24.993-18.95h-41.802v64.017c0 3.866-3.134 7-7 7h-91.42v25.234h70.321c3.866 0 7 3.134 7 7v43.219h41.802c3.058-10.927 13.096-18.95 24.993-18.95 14.322 0 25.949 11.628 25.949 25.95 0 14.321-11.627 25.949-25.949 25.949-11.897 0-21.935-8.023-24.993-18.949h-41.802v34.567c10.926 3.058 18.95 13.096 18.95 24.993 0 14.322-11.628 25.949-25.95 25.949s-25.949-11.627-25.949-25.949c0-11.897 8.023-21.935 18.949-24.993v-84.786zm91.424-225.975c-7.38 0-13.371 5.991-13.371 13.371s5.991 13.371 13.371 13.371 13.371-5.991 13.371-13.371-5.991-13.371-13.371-13.371zm52.696 257.244c-6.595 0-11.95 5.354-11.95 11.95 0 6.595 5.355 11.949 11.95 11.949s11.949-5.354 11.949-11.949c0-6.596-5.354-11.95-11.949-11.95zm-73.795 66.56c-6.595 0-11.949 5.355-11.949 11.95s5.354 11.949 11.949 11.949 11.95-5.354 11.95-11.949-5.355-11.95-11.95-11.95zm94.894-227.029c-6.596 0-11.95 5.354-11.95 11.949 0 6.596 5.354 11.95 11.95 11.95 6.595 0 11.949-5.354 11.949-11.95 0-6.595-5.354-11.949-11.949-11.949zm-186.766 16.482h-104.767c-4.17 0-7.551 3.38-7.551 7.551v104.766c0 4.171 3.381 7.551 7.551 7.551h104.767c4.17 0 7.551-3.38 7.551-7.551v-104.766c0-4.171-3.381-7.551-7.551-7.551zm12.234-92.886c-7.379 0-13.371 5.991-13.371 13.371s5.992 13.371 13.371 13.371c7.38 0 13.372-5.991 13.372-13.371s-5.992-13.371-13.372-13.371zm-46.956-51.633v89.423c0 2.135-.974 4.153-2.646 5.481s-3.858 1.821-5.938 1.338c-8.061-1.872-16.453-2.862-25.069-2.862-61.196 0-111.087 49.891-111.087 111.087 0 61.169 49.891 111.087 111.087 111.087 8.615 0 17.008-.989 25.069-2.862 2.079-.483 4.266.009 5.938 1.337s2.646 3.346 2.646 5.481v89.4c0 2.645-1.491 5.064-3.853 6.253-2.775 1.397-5.909 2.185-9.229 2.185h-41.172c-11.331 0-20.521-9.153-20.521-20.521 0-34.354-41.558-51.561-65.846-27.273-8.01 8.011-21.004 8.011-29.012.002l-29.136-29.111c-8.007-8.007-8.007-21.032 0-29.039 24.268-24.267 7.06-65.846-27.273-65.846-11.331 0-20.521-9.19-20.521-20.521v-41.172c0-11.331 9.19-20.521 20.521-20.521 34.333 0 51.541-41.579 27.273-65.846-8.01-8.011-8.01-21.004 0-29.014l29.134-29.134c8.01-8.011 21.004-8.011 29.014 0 24.268 24.267 65.846 7.06 65.846-27.273 0-11.331 9.19-20.521 20.521-20.521h41.172c3.322 0 6.459.791 9.236 2.193 2.358 1.19 3.846 3.607 3.846 6.249zm-14 403.348v-75.342c-6.405 1.019-12.97 1.548-19.653 1.548-68.909 0-125.087-56.209-125.087-125.087 0-68.908 56.178-125.087 125.087-125.087 6.683 0 13.248.53 19.653 1.548v-75.37h-40.254c-3.6 0-6.521 2.92-6.521 6.521 0 46.795-56.669 70.248-89.745 37.172-2.545-2.544-6.671-2.544-9.216 0l-29.134 29.134c-2.544 2.544-2.544 6.671 0 9.215 33.077 33.076 9.623 89.746-37.172 89.746-3.601 0-6.521 2.92-6.521 6.521v41.172c0 3.601 2.92 6.521 6.521 6.521 46.795 0 70.249 56.67 37.172 89.746-2.547 2.547-2.547 6.692 0 9.239l29.134 29.11c2.545 2.544 6.671 2.544 9.216 0 33.104-33.104 89.745-9.651 89.745 37.172 0 3.613 2.921 6.521 6.521 6.521z"/></svg>