<svg id="Layer_1" enable-background="new 0 0 512 512" height="512" viewBox="0 0 512 512" width="512" xmlns="http://www.w3.org/2000/svg"><path d="m111.467 205.3c-.242 5.232-4.681 9.278-9.914 9.035-5.232-.243-9.278-4.681-9.035-9.914s4.681-9.278 9.914-9.035c5.232.243 9.277 4.682 9.035 9.914zm378.528 157.809-28.462 11.034c-2.598 1.007-5.273 1.484-7.905 1.484-8.798 0-17.116-5.329-20.482-14.011l-2.483-6.404-23.164 9.665c1.117 6.562.043 13.383-3.215 19.308-3.865 7.028-10.267 12.122-18.025 14.342-.319.092-.64.178-.961.259 2.534 7.635 2.027 16.233-2.11 23.754-6.105 11.102-18.281 16.794-30.149 15.22.355 5.464-.779 11.071-3.59 16.181-3.854 7.008-10.232 12.092-17.957 14.315-4.829 1.39-9.803 1.549-14.552.517.154 5.15-1.015 10.393-3.66 15.203-3.855 7.009-10.506 12.273-18.244 14.442-2.673.75-5.383 1.12-8.067 1.12-5.026 0-9.965-1.3-14.407-3.852l-7.846-4.506c-3.891 5.477-9.46 9.503-16.025 11.492-2.944.892-5.951 1.334-8.938 1.334-4.948 0-9.843-1.214-14.315-3.606-6.636-3.549-11.533-9.276-14.099-15.96-8.287 3.524-18.007 3.362-26.402-1.127-5.945-3.18-10.518-8.169-13.249-14.035-8.734 4.729-19.586 5.136-28.955.125-11.716-6.267-17.686-19.132-15.782-31.575-5.153.118-10.332-1.054-15.054-3.58-7.171-3.835-12.426-10.256-14.797-18.08s-1.564-16.082 2.271-23.253l7.66-14.322c-1.712-4.071-2.556-8.52-3.365-12.869-1.467-7.889-2.609-12.776-6.097-14.13-1.373-.532-4.629-1.887-16.566-7.208l-3.077 6.962c-2.363 5.346-6.68 9.458-12.155 11.577-2.581.999-5.271 1.497-7.952 1.497-3.007 0-6.004-.626-8.83-1.875l-27.92-12.34c-11.064-4.892-16.088-17.873-11.198-28.937l64.099-145.036c2.363-5.346 6.681-9.457 12.156-11.576 5.478-2.119 11.438-1.984 16.782.379l27.919 12.34c5.346 2.363 9.458 6.68 11.576 12.155 2.119 5.476 1.984 11.436-.378 16.782l-4.808 10.878 18.173 8.384c.194.09.385.187.571.292 5.361 3.017 10.854 3.698 16.832 3.215-19.397-22.985-29.935-51.938-29.935-83.012v-85.017c0-3.2 1.907-6.092 4.849-7.353l105.141-45.06c2.012-.862 4.291-.862 6.303 0l105.142 45.06c2.941 1.26 4.849 4.153 4.849 7.353v85.017c0 31.9-11.12 61.598-31.536 84.872 11.422 4.371 19.354 6.4 26.739 2.558l15.846-8.482-4.361-11.251c-4.373-11.279 1.246-24.014 12.526-28.387l28.461-11.034c11.275-4.372 24.015 1.246 28.388 12.526l57.316 147.848c4.373 11.28-1.247 24.014-12.526 28.388zm-331.136-217.039c0 30.398 11.475 58.456 32.392 79.488 4.573-1.066 9.417-2.148 14.524-2.886-21.891-18.803-34.916-46-34.916-76.602v-66.553c0-3.2 1.907-6.093 4.849-7.353l77.141-33.06c2.012-.862 4.291-.862 6.303 0l77.142 33.06c2.941 1.261 4.849 4.153 4.849 7.353v66.553c0 29.205-12.01 55.897-32.948 74.851 4.679 1.003 9.124 2.357 13.343 3.839 20.414-20.94 31.605-48.691 31.605-78.689v-79.742l-97.143-41.631-97.141 41.631zm123.624 73.894c27.123-15.716 42.658-42.575 42.658-73.894v-61.277l-69.141-29.632-69.141 29.631v61.278c0 40.465 27.203 73.905 67.995 84.082 9.853-5.769 19.049-8.879 27.629-10.188zm-155.092-20.119c.636-1.438.668-3.05.092-4.54-.577-1.49-1.686-2.66-3.123-3.295l-27.92-12.34c-2.991-1.32-6.511.035-7.835 3.032l-64.103 145.034c-1.324 2.996.036 6.511 3.032 7.835l27.92 12.339c1.438.636 3.05.668 4.539.091s2.66-1.686 3.295-3.123zm7.842 218.929 18.285-31.647c3.007-6.919.21-15.051-6.46-18.611-7.078-3.777-15.906-1.104-19.685 5.96l-13.896 25.984c-1.82 3.402-2.199 7.333-1.068 11.066 1.132 3.733 3.629 6.792 7.031 8.611 5.069 2.712 11.276 2.138 15.793-1.363zm34.768 30.47 20.199-39.118c1.219-6.202-1.788-12.7-7.372-15.68-5.115-2.731-11.366-2.131-15.887 1.432l-22.628 39.738c-3.78 7.069-1.105 15.896 5.965 19.678 7.061 3.775 15.907 1.062 19.723-6.05zm40.886 15.947 17.914-34.431c1.214-6.199-1.793-12.691-7.373-15.669-5.563-2.97-12.591-1.9-17.066 2.482l-19.514 37.791c-.382 5.682 2.583 11.138 7.633 13.839 6.28 3.359 14.108 1.619 18.406-4.012zm41.773 15.137 13.326-24.918c2.623-4.905 2.168-11-1.16-15.526-1.272-1.731-2.888-3.127-4.803-4.151-5.562-2.972-12.596-1.897-17.072 2.495l-17.563 33.757c-.591 5.859 2.365 11.51 7.595 14.306 3.401 1.819 7.331 2.198 11.066 1.067 3.733-1.131 6.792-3.627 8.611-7.03zm41.098-23c-.431-.242-10.234-5.943-10.234-5.943-.36 3.994-1.485 7.936-3.428 11.57l-7.613 14.236 8.046 4.621c3.06 1.758 6.679 2.183 10.188 1.2 3.63-1.018 6.744-3.477 8.543-6.747 3.674-6.682 1.206-15.176-5.502-18.937zm96.763-93.549c-1.271-2.62-3.29-4.772-5.838-6.225l-75.698-43.146c-12.854-7.328-28.913-.826-47.505 6.701-13.9 5.627-29.525 11.95-45.357 11.952-15.469.001-31.134-6.033-45.602-24.648-1.878-2.411-2.626-5.521-2.047-8.524.579-3.004 2.43-5.614 5.078-7.16 21.347-12.458 39.376-26.058 53.587-40.419 3.791-3.831 7.5-7.251 11.129-10.309-16.366-7.18-30.364-3.911-45.042-.473-14.507 3.399-29.504 6.913-44.816-1.553l-17.663-8.148-43.28 97.923c10.715 4.775 14.599 6.427 15.889 6.927 10.665 4.14 13.695 14.327 15.418 22.888 9.271-9.106 23.758-11.602 35.817-5.165 8.933 4.767 14.571 13.433 15.855 22.851 6.655-1.223 13.684-.247 19.915 3.08 7.488 3.996 12.732 10.742 14.953 18.468 7.648-2.433 16.16-1.818 23.646 2.176 7.488 3.996 12.732 10.741 14.953 18.466 7.651-2.435 16.167-1.82 23.651 2.18 3.574 1.911 6.656 4.446 9.188 7.546l39.847 22.555c3.187 1.771 6.902 2.182 10.464 1.157 3.605-1.038 6.575-3.399 8.363-6.65 3.654-6.644 1.168-15.121-5.543-18.898-.438-.246-55.921-31.627-55.921-31.627-3.851-2.167-5.216-7.045-3.049-10.896 2.167-3.85 7.044-5.215 10.895-3.049l68.502 38.546c6.706 3.685 15.167 1.229 18.855-5.477 3.655-6.644 1.168-15.122-5.543-18.899-.002-.001-.004-.003-.007-.004-16.074-9.003-34.29-19.206-52.143-29.426-3.834-2.195-5.163-7.083-2.969-10.917s7.08-5.165 10.918-2.968c17.797 10.188 35.986 20.376 52.034 29.365 3.156 1.767 6.848 2.182 10.398 1.166 3.627-1.038 6.612-3.407 8.407-6.67 2.172-3.943 2.265-8.57.261-12.696zm34.356-23.49-38.86-100.241-14.206 7.604c-15.417 8.021-30.507 2.014-45.1-3.793-24.23-9.645-49.287-19.616-88.199 19.707-13.945 14.093-31.215 27.432-51.395 39.707 20.72 22.295 42.906 13.311 68.358 3.007 20.568-8.328 41.839-16.938 61.432-5.771l75.699 43.146c3.107 1.771 5.843 4.041 8.116 6.713zm62.726.215-57.316-147.848c-.911-2.351-3.164-3.793-5.546-3.793-.713 0-1.438.129-2.142.402l-28.46 11.033c-3.054 1.184-4.575 4.632-3.392 7.686l57.316 147.849c1.184 3.054 4.634 4.576 7.687 3.392l28.462-11.034c3.054-1.185 4.574-4.633 3.391-7.687zm-71.717-135.816c-5.224 0-9.485 4.26-9.485 9.485 0 5.224 4.261 9.485 9.485 9.485s9.485-4.261 9.485-9.485c0-5.225-4.261-9.485-9.485-9.485zm-156.49-22.541c-3.936 3.936-9.169 6.103-14.736 6.103-5.566 0-10.8-2.167-14.735-6.103l-28.45-28.45c-8.124-8.125-8.125-21.346 0-29.471 3.936-3.936 9.169-6.103 14.736-6.103s10.801 2.167 14.736 6.103l13.656 13.657 36.437-36.799c3.911-3.95 9.129-6.136 14.691-6.157h.081c5.541 0 10.752 2.149 14.683 6.058 8.123 8.078 8.167 21.276.097 29.421-6.34 6.398-12.664 12.813-18.988 19.228-10.528 10.677-21.415 21.719-32.208 32.513zm-11.314-11.314c10.754-10.754 21.62-21.775 32.128-32.433 6.334-6.424 12.667-12.848 19.017-19.256 1.871-1.889 1.865-4.945-.014-6.814-.916-.91-2.133-1.37-3.421-1.403-1.282.005-2.483.508-3.383 1.416l-42.093 42.512c-1.497 1.512-3.536 2.366-5.665 2.371-.006 0-.013 0-.02 0-2.122 0-4.156-.843-5.657-2.343l-19.342-19.342c-.913-.914-2.129-1.417-3.422-1.417s-2.509.503-3.422 1.417c-1.887 1.887-1.888 4.958 0 6.844l28.449 28.449c.913.914 2.129 1.417 3.422 1.417 1.295-.001 2.51-.504 3.423-1.418z"/></svg>