<?xml version="1.0" encoding="UTF-8"?>
<svg id="Layer_2" data-name="Layer 2" xmlns="http://www.w3.org/2000/svg" viewBox="0 0 59.53 19.76">
  <defs>
    <style>
      .cls-1 {
        fill: #ed288a;
        stroke-width: 0px;
      }
    </style>
  </defs>
  <g id="Layer_1-2" data-name="Layer 1">
    <g>
      <path class="cls-1" d="m0,8.23v8.23l1.65,1.65,1.65,1.65V3.3h9.89v9.89h-6.59v3.3h9.85V0H0v8.23Z"/>
      <path class="cls-1" d="m24.58,8.18v4.89h1.47v-4.4l1.1-.02c1.23-.02,1.46-.06,1.94-.29.5-.23.9-.68,1.11-1.24.27-.72.27-1.56,0-2.28-.28-.74-.81-1.21-1.61-1.43-.28-.08-.42-.08-2.16-.1l-1.86-.02v4.89Zm2.47-3.53c.77.06,1.16.17,1.41.44.19.19.29.47.32.82.04.59-.13,1.01-.5,1.21-.28.15-.68.22-1.44.25l-.67.02v-1.37c0-.75.01-1.38.03-1.39.03-.04.24-.03.85.01Z"/>
      <path class="cls-1" d="m39,8.18v4.89h1.47v-4.4l1.1-.02c1.23-.02,1.46-.06,1.94-.29.5-.23.9-.68,1.11-1.24.27-.72.27-1.56,0-2.28-.28-.73-.81-1.21-1.61-1.43-.28-.08-.42-.08-2.16-.1l-1.86-.02v4.89Zm2.47-3.53c1,.07,1.39.26,1.63.77.08.17.09.27.09.64s-.02.47-.08.62c-.23.5-.68.66-1.87.7l-.65.02v-1.37c0-.75.01-1.38.03-1.39.03-.04.24-.03.85.01Z"/>
      <path class="cls-1" d="m31.65,3.56c-.62.31-.67,1.16-.08,1.55.15.1.2.11.49.11s.34-.01.49-.12c.47-.33.53-.98.13-1.38-.29-.29-.66-.35-1.03-.17Z"/>
      <path class="cls-1" d="m47.63,6.54s-.18.04-.3.06c-.35.07-.82.32-1.12.59-.71.65-1.04,1.52-1.04,2.74,0,1.52.54,2.61,1.52,3.09.49.24.76.3,1.35.29.42,0,.54-.02.81-.1.41-.14.75-.36,1.05-.69l.24-.26v.81h1.43v-6.31h-1.43v.48c0,.26-.01.48-.03.48-.02,0-.07-.08-.11-.17-.18-.39-.71-.78-1.25-.93-.22-.06-.98-.11-1.13-.07Zm1.18,1.29c.92.17,1.44,1.01,1.37,2.22-.01.23-.05.52-.09.64-.29.96-1.08,1.5-1.97,1.35-.71-.12-1.18-.56-1.37-1.29-.09-.35-.1-1.21-.02-1.54.26-1.03,1.07-1.58,2.07-1.39Z"/>
      <path class="cls-1" d="m6.59,8.24v1.65h1.64s1.64-.02,1.64-.02v-1.64s.02-1.64.02-1.64h-3.3v1.65Z"/>
      <path class="cls-1" d="m31.53,9.91v3.16h1.43v-6.31h-1.43v3.16Z"/>
      <path class="cls-1" d="m52.95,6.82s.54,1.34,1.16,2.89l1.13,2.82-.85,1.74c-.47.96-.86,1.74-.86,1.75s.33.02.73.02h.73l.63-1.28c2.44-4.98,3.91-7.98,3.91-7.99,0,0-.35-.02-.77-.02h-.77l-.93,1.99c-.51,1.09-.94,1.98-.95,1.97-.01,0-.38-.9-.82-1.99l-.79-1.97h-.79c-.73,0-.79,0-.77.07Z"/>
    </g>
  </g>
</svg>