<?xml version="1.0" encoding="utf-8"?>
<!-- Generator: Adobe Illustrator 27.9.4, SVG Export Plug-In . SVG Version: 9.03 Build 54784)  -->
<svg version="1.1" id="Layer_1" xmlns="http://www.w3.org/2000/svg" xmlns:xlink="http://www.w3.org/1999/xlink" x="0px" y="0px"
	 viewBox="0 0 123 80" style="enable-background:new 0 0 123 80;" xml:space="preserve">
<style type="text/css">
	.st0{clip-path:url(#SVGID_00000091711342460498581850000013940309755155622301_);}
	.st1{clip-path:url(#SVGID_00000100345228619011581630000002424162793246321537_);}
	.st2{fill-rule:evenodd;clip-rule:evenodd;fill:#3C4043;}
	.st3{fill-rule:evenodd;clip-rule:evenodd;fill:#FFFFFE;}
	.st4{fill:#3C4043;}
	.st5{fill-rule:evenodd;clip-rule:evenodd;fill:#4285F4;}
	.st6{fill-rule:evenodd;clip-rule:evenodd;fill:#34A853;}
	.st7{fill-rule:evenodd;clip-rule:evenodd;fill:#FBBC04;}
	.st8{fill-rule:evenodd;clip-rule:evenodd;fill:#EA4335;}
</style>
<g>
	<g>
		<defs>
			<rect id="SVGID_1_" x="7.3" y="5" width="109.4" height="70"/>
		</defs>
		<clipPath id="SVGID_00000054972360148050948420000000780170206179305365_">
			<use xlink:href="#SVGID_1_"  style="overflow:visible;"/>
		</clipPath>
		<g style="clip-path:url(#SVGID_00000054972360148050948420000000780170206179305365_);">
			<g>
				<g>
					<defs>
						<rect id="SVGID_00000151540416233029979690000004765251582462112188_" x="7.3" y="5" width="109.4" height="70"/>
					</defs>
					<clipPath id="SVGID_00000086661989366302874480000005245267426372662700_">
						<use xlink:href="#SVGID_00000151540416233029979690000004765251582462112188_"  style="overflow:visible;"/>
					</clipPath>
					<g style="clip-path:url(#SVGID_00000086661989366302874480000005245267426372662700_);">
						<path class="st2" d="M106.8,5H15c-0.7,0-1.3,0.1-2,0.2s-1.4,0.3-2,0.6c-1.9,1-3.2,2.8-3.5,4.8c-0.1,0.7-0.2,1.4-0.2,2.1
							c0,0.3,0,0.6,0,0.9v52.6c0,0.3,0,0.6,0,0.9c0,0.7,0.1,1.4,0.2,2.1s0.3,1.4,0.6,2c0.6,1.2,1.6,2.2,2.9,2.8
							c0.6,0.3,1.3,0.5,2,0.7c0.7,0.1,1.4,0.2,2.1,0.2H109c0.7,0,1.4-0.1,2.1-0.2c0.7-0.1,1.4-0.3,2-0.7c1.2-0.6,2.2-1.6,2.9-2.9
							c0.3-0.6,0.5-1.3,0.6-2s0.2-1.4,0.2-2.1c0-0.3,0-0.6,0-0.9V13.7c0-0.3,0-0.6,0-0.9c0-0.7-0.1-1.4-0.2-2.1
							c-0.3-2.1-1.6-3.9-3.5-4.8c-0.6-0.3-1.3-0.5-2-0.6s-1.4-0.2-2.1-0.2L106.8,5"/>
						<path class="st3" d="M106.8,7.3h2c0.6,0,1.1,0.1,1.7,0.1c0.5,0.1,0.9,0.2,1.3,0.4c0.4,0.2,0.8,0.5,1.1,0.8s0.6,0.7,0.8,1.1
							c0.2,0.4,0.4,0.8,0.4,1.3c0.1,0.6,0.1,1.1,0.1,1.7c0,0.3,0,0.6,0,0.9s0,0.7,0,1.1v50.4c0,0.4,0,0.7,0,1.1s0,0.6,0,0.9
							c0,0.6-0.1,1.1-0.2,1.7c-0.1,0.5-0.2,0.9-0.4,1.3s-0.5,0.8-0.8,1.1c-0.6,0.6-1.5,1.1-2.4,1.2c-0.6,0.1-1.1,0.1-1.7,0.2H15.1
							c-0.6,0-1.1,0-1.7-0.1c-0.5-0.1-0.9-0.2-1.3-0.4c-0.4-0.2-0.8-0.5-1.1-0.8c-0.3-0.3-0.6-0.7-0.8-1.1c-0.2-0.4-0.4-0.9-0.4-1.3
							c-0.1-0.6-0.1-1.1-0.1-1.7c0-0.3,0-0.6,0-0.9V13.7c0-0.3,0-0.6,0-0.9c0-0.6,0.1-1.1,0.1-1.7c0.1-0.9,0.6-1.7,1.2-2.4
							c0.3-0.3,0.7-0.6,1.1-0.8c0.4-0.2,0.9-0.4,1.3-0.4c0.6-0.1,1.1-0.1,1.7-0.1L106.8,7.3"/>
						<path class="st4" d="M59.9,41.6v10h-3.1V27h8.3c2,0,3.9,0.7,5.3,2.1c2.8,2.7,3,7.1,0.3,10l-0.3,0.3c-1.4,1.4-3.4,2.1-5.3,2.1
							L59.9,41.6z M59.9,30v8.6h5.2c1.2,0,2.3-0.4,3.1-1.3c1.6-1.7,1.6-4.4-0.1-6.1c-0.8-0.8-1.9-1.2-3-1.2L59.9,30z"/>
						<path class="st4" d="M79.8,34.2c2-0.1,3.9,0.6,5.4,1.9c1.4,1.3,2.1,3.2,2,5.1v10.4h-3v-2.3h-0.1c-1.1,1.8-3,2.9-5.2,2.9
							c-1.7,0-3.3-0.5-4.6-1.6c-1.2-1-1.9-2.5-1.8-4.1c-0.1-1.6,0.7-3.2,2-4.2c1.5-1.1,3.3-1.6,5.2-1.5c1.6-0.1,3.2,0.3,4.6,1v-0.7
							c0-1.1-0.5-2.1-1.3-2.8s-1.9-1.2-3-1.2c-1.7,0-3.2,0.8-4.1,2.2l-2.8-1.7C74.7,35.3,77.2,34.1,79.8,34.2 M75.9,46.4
							c0,0.8,0.4,1.6,1,2.1c0.7,0.5,1.5,0.8,2.4,0.8c1.3,0,2.6-0.5,3.5-1.5c1-0.9,1.5-2.1,1.6-3.5c-1.2-0.9-2.6-1.3-4.1-1.2
							c-1.1,0-2.2,0.3-3.2,0.9C76.3,44.7,75.8,45.5,75.9,46.4"/>
						<polygon class="st2" points="104.4,34.7 94,59 90.8,59 94.7,50.5 87.8,34.7 91.2,34.7 96.1,46.8 96.2,46.8 101,34.7 						"/>
						<path class="st5" d="M47.3,39.5c0-1-0.1-1.9-0.2-2.9H34V42h7.5c-0.3,1.8-1.3,3.3-2.8,4.3v3.5h4.5C46,47.2,47.5,43.4,47.3,39.5
							"/>
						<path class="st6" d="M34,53.3c3.4,0.1,6.7-1.1,9.2-3.4l-4.5-3.5c-3.9,2.5-9.1,1.4-11.6-2.5c-0.4-0.6-0.7-1.3-1-2h-4.6v3.7
							C23.9,50.2,28.7,53.3,34,53.3"/>
						<path class="st7" d="M26.2,41.8c-0.6-1.8-0.6-3.7,0-5.4v-3.6h-4.6c-2,4-2,8.7,0,12.7L26.2,41.8z"/>
						<path class="st8" d="M34,30.6c2,0,3.9,0.7,5.3,2.1l4-4C40.8,26.3,37.5,25,34,25c-5.3,0-10.1,3-12.5,7.8l4.6,3.7
							C27.2,33,30.4,30.7,34,30.6"/>
					</g>
				</g>
			</g>
		</g>
	</g>
</g>
</svg>
