<?xml version="1.0" encoding="UTF-8"?>
<svg id="Layer_2" data-name="Layer 2" xmlns="http://www.w3.org/2000/svg" viewBox="0 0 419.53 172.89">
  <defs>
    <style>
      .cls-1 {
        fill: #ec777e;
      }

      .cls-1, .cls-2, .cls-3, .cls-4, .cls-5, .cls-6, .cls-7, .cls-8, .cls-9 {
        stroke-width: 0px;
      }

      .cls-2 {
        fill: #e1242f;
      }

      .cls-3 {
        fill: #fffcfc;
      }

      .cls-4 {
        fill: #fff;
      }

      .cls-5 {
        fill: #fffdfe;
      }

      .cls-6 {
        fill: #fefcfc;
      }

      .cls-7 {
        fill: #fffdfd;
      }

      .cls-8 {
        fill: #ee878d;
      }

      .cls-9 {
        fill: #ed7e85;
      }
    </style>
  </defs>
  <g id="Layer_1-2" data-name="Layer 1">
    <rect class="cls-2" x="0" width="419.53" height="172.89" rx="25.51" ry="25.51"/>
    <path class="cls-3" d="m0,152.91c.16-.06.33-.03.52,0,.02.18.05.35.06.51.02.46.12.85.33,1.3.43.95.96,1.92.92,3.03,0,.14.09.32.2.42.74.64.91,1.62,1.41,2.4.2.32.28.71.45,1.05.06.11.25.16.38.23.11.06.33.1.34.16.04.57.63.81.76,1.21.2.58.61.92.96,1.34.31.37.86.56.84,1.17,0,.06.13.19.19.18.49-.04.69.37.97.62.33.29,1.01.21.97.95,0,.13.51.35.81.42.42.1.75.17.78.73,0,.14.52.2.72.38.37.34.68.72,1.27.64.14-.02.31.2.46.31.94.62,1.86,1.21,3.06,1.35.86.1,1.72.52,2.51.92.28.14.51.23.81.27.18.02.34.14.54.29-6.72.08-13.47.08-20.26.08C0,166.26,0,159.64,0,152.91Z"/>
    <path class="cls-5" d="m19.77,0c.05.12,0,.35-.04.35-.57.03-1.05.4-1.57.46-.62.08-1.05.47-1.59.66-.06.02-.1.13-.14.13-1.67-.13-2.65,1.34-4.1,1.77-.59.17-1.2.56-1.66,1.11-.79.95-2.07,1.36-2.78,2.41-.89-.03-.79.91-1.27,1.3-.49.39-1.02.77-1.21,1.5-.12.44-.79.68-.81,1.28-.79.11-.87.83-1.15,1.37-.3.56-.56,1.14-.83,1.72-.04.09-.06.21-.13.26-.63.38-.73.96-.71,1.64,0,.25-.28.49-.37.76-.36,1-.91,1.94-.86,3.05,0,.1-.25.22-.47.32C0,13.4,0,6.72,0,0c6.56,0,13.12,0,19.77,0Z"/>
    <path class="cls-7" d="m399.75,172.89c-.08-.1-.08-.27-.04-.28.62-.18,1.28-.26,1.85-.53.61-.29,1.29-.29,1.88-.69.39-.27.98-.16,1.46-.49,1.08-.72,2.41-.99,3.41-1.93.3-.28.68-.41.89-.87.12-.26.66-.34,1.01-.5.06-.03.16.01.2-.03.35-.32.48-.79,1.04-1,.38-.14.72-.61,1.21-.74-.09-.75.86-.9.9-1.57,0-.09.06-.25.11-.26.85-.14.87-.91,1.15-1.49.08-.17.23-.37.39-.43,1.1-.39,1.12-1.52,1.63-2.31.33-.51.48-1.13.95-1.56.11-.1.26-.25.26-.38,0-.6.09-1.14.39-1.7.16-.31.17-.71.41-1.06.44-.63.46-1.41.61-2.2.07,6.63.07,13.31.07,20.03h-19.77Z"/>
    <path class="cls-4" d="m419.53,19.57c-.07.04-.2-.01-.21-.08-.18-1.12-.5-2.19-1.16-3.12-.02-.03-.05-.06-.05-.08.26-1.04-.58-1.68-.92-2.5-.34-.82-.79-1.59-1.19-2.39-.03-.06-.05-.18-.08-.18-.8.04-.82-.75-1.12-1.17-.6-.81-1.16-1.64-1.95-2.28.02-.89-.91-.8-1.31-1.27-.41-.48-.74-1.1-1.51-1.19-.19-.02-.38-.27-.51-.45-.72-1.06-1.9-1.39-2.94-1.95-.31-.17-.75-.2-.94-.44-.85-1.12-2.46-.58-3.34-1.57-.79.14-1.38-.66-2.19-.47-.13.03-.3-.16-.45-.34,6.62-.09,13.23-.09,19.88-.09v19.57Z"/>
    <path class="cls-3" d="m285.38,45.46c2.32,2.24,3.75,4.85,4.13,8,.13,1.11.25,2.24.25,3.36.01,20.58.01,41.17,0,61.75,0,.46-.05.92-.09,1.62-.44-.34-.71-.5-.93-.73-3.64-3.75-7.26-7.52-10.9-11.27-1.53-1.58-1.54-1.57-1.54-3.71,0-13.14,0-26.29,0-39.43,0-3.03-1.19-5.52-3.57-7.41-1.66-1.32-3.59-1.86-5.68-1.86-11.78,0-23.55,0-35.33,0-1.47,0-2.94-.02-4.4,0-3.63.06-6.36,1.67-8.1,4.86-.7,1.28-1.08,2.7-1.07,4.19,0,1.78,0,3.55,0,5.33,0,12.05.01,24.1-.01,36.15,0,1.84.35,3.58,1.26,5.17,1.17,2.05,2.91,3.41,5.2,4.1,1.14.34,2.28.39,3.44.39,12.7,0,25.4.01,38.1-.02.93,0,1.59.25,2.22.91,3.8,3.92,7.63,7.82,11.45,11.71.21.21.49.35.74.53-.04.08-.09.16-.13.24-.17.06-.34.15-.51.17-.34.03-.68.01-1.02.01-20.28,0-40.55-.02-60.83.02-2.72,0-5.18-.66-7.39-2.17-2.22-1.52-3.85-3.52-4.87-6.05-.78-1.94-1.05-3.93-1.05-5.99,0-19.9,0-39.8,0-59.7,0-2.67.65-5.18,2.09-7.44,1.77-2.77,4.19-4.7,7.39-5.64,1.36-.4,2.75-.56,4.14-.56,19.25-.02,38.51-.02,57.76-.01,3.48,0,6.6,1.05,9.26,3.49Z"/>
    <path class="cls-3" d="m190.67,114.51v16.16c-.39.05-.72.13-1.04.13-4.34,0-8.67,0-13.01,0-.33,0-.67-.06-1.1-.11v-38.29c-.88-.27-41.9-.31-43.07-.05v1.27c0,11.81,0,23.62,0,35.44,0,.27.02.55,0,.82-.05.6-.23.8-.83.8-4.61,0-9.22,0-13.83-.02-.1,0-.2-.05-.41-.11-.03-.43-.08-.9-.08-1.36,0-10.52,0-21.03,0-31.55,0-18.03,0-36.05,0-54.08v-1.41c.47-.08.86-.19,1.25-.19,4.2-.01,8.4,0,12.6,0,.24,0,.48,0,.71.06.35.09.61.3.6.72-.01.27,0,.55,0,.82,0,11.33,0,22.67,0,34v1.46h43.06c.02-3.11,0-6.17.01-9.23,0-3.07,0-6.15,0-9.22v-18.42c.46-.08.86-.19,1.25-.2,4.23-.01,8.47-.01,12.7,0,.39,0,.77.14,1.2.22,0,24.15,0,48.18,0,72.32Z"/>
    <path class="cls-3" d="m312.14,58.14c4.16-5.29,9.18-9.39,15.21-12.23,2.24-1.05,4.54-1.92,6.94-2.54,2.68-.69,5.39-1.07,8.15-1.28,2.37-.19,4.71.02,7.04.23,1.78.16,3.52.7,5.28,1.07,2.47.51,4.77,1.47,7.04,2.54,3.97,1.87,7.56,4.34,10.71,7.37,3.59,3.46,6.64,7.35,8.77,11.89.77,1.65,1.6,3.28,2.24,4.99.58,1.55,1.01,3.16,1.38,4.77.44,1.92.83,3.85,1.09,5.8.21,1.58.23,3.18.1,4.85h-12.95c-.04-.13-.1-.25-.11-.38-.15-1.59-.23-3.19-.46-4.77-.18-1.24-.49-2.47-.85-3.67-.75-2.5-1.82-4.88-3.19-7.1-3.09-5.02-7.3-8.82-12.62-11.33-1.77-.83-3.63-1.46-5.58-1.86-2.38-.48-4.77-.84-7.2-.66-1.49.11-2.96.39-4.44.63-2.19.35-4.22,1.18-6.23,2.1-2.23,1.02-4.25,2.36-6.1,3.92-2.14,1.81-3.97,3.92-5.52,6.27-1.46,2.21-2.6,4.58-3.45,7.07-.46,1.34-.65,2.76-.97,4.15-.63,2.67-.69,5.39-.69,8.12.01,13.31,0,26.63,0,39.94,0,.44,0,.88,0,1.35-.9.28-1.76.2-2.57.02-3.93-.88-6.95-3.06-8.9-6.6-1.11-2.02-1.7-4.2-1.7-6.53,0-9.8-.03-19.59.02-29.39.01-2.28.2-4.57.49-6.84.32-2.55.83-5.09,1.61-7.55,1.41-4.47,3.39-8.66,6.1-12.5.43-.6.87-1.2,1.36-1.84Z"/>
    <path class="cls-3" d="m236.69,70.4c7.02,0,13.94,0,20.87,0,1.3,0,2.49.21,3.5,1.11,1.08.96,1.51,2.21,1.68,3.58.04.34.01.68.01,1.02,0,8.32,0,16.65,0,24.97v1.3c-.44.04-.76.11-1.09.11-8.39,0-16.78-.03-25.18.03-1.9.01-4.16-1.58-4.47-3.57-.1-.63-.25-1.27-.26-1.9-.02-7.16-.03-14.33,0-21.49,0-2.16.86-3.91,2.95-4.8.57-.24,1.25-.24,1.97-.35Z"/>
    <path class="cls-8" d="m53.81,95.92c-.34-.28-.71-.52-1.01-.84-1.41-1.48-2.8-2.98-4.2-4.47-.07-.07-.17-.11-.35-.21-.06.25-.13.45-.15.66-.02.34,0,.68,0,1.02,0,12.46,0,24.91,0,37.37q0,1.63-1.66,1.63c-4.27,0-8.53,0-12.8,0-.24,0-.48,0-.72,0-.53,0-.83-.27-.85-.81-.01-.31-.02-.61-.02-.92,0-28.63,0-57.26,0-85.89,0-1.66.02-1.67,1.64-1.67,4.27,0,8.53,0,12.8,0,.24,0,.48,0,.72,0,.7.05.84.17.88.85.02.31,0,.61,0,.92,0,11.91,0,23.82,0,35.73,0,.43,0,.86,0,1.28.07.02.15.05.22.07.7-.66,1.4-1.32,2.18-1.98.09,0,.14.05.12.12-.84.98-1.6,1.96-2.84,2.73-.04-.64-.1-1.06-.1-1.49,0-6.35,0-12.69,0-19.04,0-5.8,0-11.6,0-17.4,0-.43-.05-.85-.08-1.31h-14.87c-.07.13-.13.18-.14.24-.03.13-.05.27-.05.4,0,29.01,0,58.01,0,87.02,0,.17.04.34.07.5,0,.03.03.06.05.09.02.03.04.05.06.07,1.33.19,14.05.13,14.95-.11.04-1.89.01-3.83.02-5.76,0-1.95,0-3.89,0-5.84v-11.57c0-1.95,0-3.89,0-5.84v-5.84c0-1.94,0-3.87,0-5.81.69,0,.7-.02,1,.3.64.66,1.28,1.31,1.9,1.99,1.12,1.22,2.22,2.46,3.3,3.71-.03.02-.08.07-.08.07Z"/>
    <path class="cls-8" d="m50.58,78.65c.2-.36.39-.73.66-1.02,1.45-1.53,2.93-3.03,4.38-4.56,1.42-1.5,2.81-3.04,4.23-4.55,1.4-1.49,2.81-2.96,4.21-4.44,2.5-2.64,5-5.29,7.5-7.92,1.66-1.75,3.35-3.48,5.01-5.24,1.54-1.63,3.04-3.29,4.57-4.93,1.19-1.26,2.41-2.5,3.6-3.75.36-.38.8-.46,1.3-.46,1.84.01,3.68,0,5.52,0,3.65,0,7.3,0,10.94,0,.42,0,.9-.14,1.24.33-.14.56-.6.88-1.09,1.29-.17.02-.21.01-.22-.05.23-.35.42-.64.68-1.04-.4-.05-.63-.11-.85-.11-5.39,0-10.78,0-16.16-.01-.6,0-1.04.23-1.42.65-.8.88-1.61,1.75-2.43,2.61-2.41,2.54-4.83,5.06-7.23,7.6-2.28,2.41-4.54,4.85-6.82,7.27-1.44,1.53-2.92,3.02-4.36,4.55-1.61,1.7-3.19,3.43-4.8,5.14-1.6,1.71-3.2,3.41-4.82,5.1-1.17,1.22-2.37,2.41-3.56,3.61,0,0-.05-.05-.07-.07Z"/>
    <path class="cls-9" d="m385.36,128.2c.6.59,1.24,1.15,1.8,1.78.45.51.22.99-.47,1.03-.92.04-1.84.03-2.76.04-4.68.02-9.35.03-14.03.07-.81,0-1.4-.22-1.96-.83-2.03-2.21-4.13-4.35-6.18-6.55-1.32-1.42-2.6-2.88-3.9-4.42,0-.09.06-.15.12-.13,1.75,1.78,3.44,3.54,5.11,5.3,1.77,1.87,3.54,3.73,5.28,5.63.42.46.86.58,1.44.58,4.61-.05,9.21-.08,13.82-.13.85-.01,1.7-.11,2.54-.2.14-.01.27-.15.43-.24-.48-.65-.91-1.24-1.33-1.86.03-.03.08-.08.08-.08Z"/>
    <path class="cls-9" d="m340.18,100.44c-.07-.13-.21-.36-.2-.37.22-.15.44-.32.69-.39.26-.07.54-.03.81-.03,5.27,0,10.54.02,15.82-.02.94,0,1.61.29,2.21.98.8.92,1.69,1.76,2.52,2.65.55.59,1.06,1.22,1.59,1.93,0,.09-.05.14-.11.11-1.55-1.57-3.04-3.11-4.51-4.66-.38-.4-.77-.6-1.33-.6-5.45.01-10.89,0-16.34.02-.35,0-.69.18-1.06.31l-.09.07Z"/>
    <path class="cls-8" d="m101.84,126.56c1.14,1.16,2.29,2.3,3.4,3.48.15.16.25.54.16.72-.08.17-.43.25-.67.31-.19.05-.41.01-.61.01-5.35,0-10.69-.01-16.04.01-.81,0-1.41-.21-1.95-.84-.89-1.03-1.89-1.96-2.83-2.94-.28-.29-.52-.62-.77-1.03,0-.09.05-.14.12-.12,1.3,1.28,2.55,2.52,3.75,3.8.48.51.99.73,1.69.72,5.28-.02,10.57-.01,15.85-.02.33,0,.65-.04,1.2-.07-.42-.5-.71-.86-1.01-1.2-.8-.92-1.6-1.84-2.37-2.78.03-.03.08-.08.08-.08Z"/>
    <path class="cls-1" d="m101.45,44.7c-.77.85-1.52,1.72-2.32,2.55-2.42,2.53-4.87,5.04-7.29,7.57-2.97,3.09-5.92,6.19-8.89,9.28-.07.07-.15.13-.32.2-.09,0-.14-.04-.12-.11,1.27-1.4,2.53-2.74,3.79-4.07,2.14-2.26,4.29-4.53,6.44-6.78,2.36-2.48,4.72-4.96,7.1-7.42.46-.48,1.01-.88,1.54-1.3.03.03.08.08.08.08Z"/>
    <path class="cls-1" d="m80.96,66.01c-.15.23-.26.48-.44.67-2.14,2.24-4.28,4.47-6.43,6.69-.66.68-1.34,1.34-2.1,2.01-.09,0-.14-.05-.13-.12,2.41-2.58,4.81-5.1,7.21-7.6.58-.6,1.19-1.17,1.81-1.72.02.02.07.07.07.07Z"/>
    <path class="cls-1" d="m71.92,75.4c-.19.32-.37.65-.62.91-1.01,1.05-2.06,2.06-3.06,3.12-1.63,1.72-3.22,3.47-4.89,5.29-.06.08-.11.14-.16.11-.31-.45.09-.63.29-.84,2.2-2.34,4.42-4.67,6.65-6.99.56-.58,1.15-1.13,1.73-1.69,0,0,.05.05.08.07Z"/>
    <path class="cls-8" d="m74.72,118.04c-.52-.48-1.07-.94-1.56-1.45-1.8-1.86-3.58-3.74-5.36-5.61-.16-.17-.28-.38-.41-.66,0-.09.06-.15.12-.12,2.37,2.44,4.68,4.85,6.98,7.27.13.14.22.32.31.51-.03.02-.08.07-.08.07Z"/>
    <path class="cls-8" d="m67.36,110.24c-.52-.43-1.03-.87-1.49-1.36-1.61-1.68-3.21-3.38-4.81-5.08-.23-.24-.43-.52-.64-.87,0-.09.05-.14.12-.12,1.7,1.69,3.34,3.35,4.95,5.04.69.73,1.3,1.54,1.95,2.31,0,0-.05.05-.08.08Z"/>
    <path class="cls-8" d="m82.08,125.83c-.92-.89-1.85-1.76-2.75-2.67-1.09-1.11-2.14-2.26-3.2-3.4-.34-.37-.65-.78-.97-1.25,0-.09.05-.14.11-.12,1.94,1.97,3.82,3.92,5.69,5.88.44.46.81.98,1.19,1.49-.02.02-.07.07-.07.07Z"/>
    <path class="cls-8" d="m60.4,102.87c-.52-.43-1.05-.87-1.52-1.35-1.39-1.45-2.77-2.91-4.15-4.38-.18-.2-.32-.44-.47-.75,0-.09.06-.14.12-.12,1.84,1.87,3.62,3.71,5.38,5.56.27.29.47.64.7.97,0,0-.05.05-.07.08Z"/>
    <path class="cls-9" d="m378.39,120.83c1.62,1.67,3.25,3.33,4.86,5,.3.31.56.66.84,1.09,0,.09-.05.14-.12.12-1.84-1.88-3.61-3.74-5.38-5.6-.13-.14-.2-.34-.27-.54.03-.02.08-.07.08-.07Z"/>
    <path class="cls-9" d="m351.66,112.72c-.75-.72-1.51-1.43-2.24-2.18-.94-.97-1.85-1.97-2.76-2.96-.25-.27-.46-.58-.69-.96,0-.09.05-.15.12-.13,1.53,1.56,3.01,3.1,4.47,4.65.43.46.8.99,1.17,1.51-.03.02-.08.07-.08.07Z"/>
    <path class="cls-9" d="m357.84,119.25c-.29-.19-.57-.38-.8-.62-1.54-1.61-3.07-3.24-4.59-4.86-.14-.15-.23-.33-.33-.59,0-.09.05-.14.12-.12,1.29,1.28,2.53,2.53,3.73,3.81.69.73,1.3,1.53,1.95,2.3,0,0-.05.05-.08.08Z"/>
    <path class="cls-8" d="m95.72,119.99c.21.15.45.28.63.47,1.42,1.48,2.82,2.97,4.22,4.47.18.19.29.44.42.76-.01.09-.06.14-.12.12-.7-.68-1.34-1.33-1.96-2.01-1.11-1.23-2.2-2.48-3.27-3.74.02-.02.07-.07.07-.07Z"/>
    <path class="cls-9" d="m365.68,107.31c1.2,1.21,2.42,2.41,3.6,3.63.46.48.86,1.02,1.29,1.63,0,.09-.05.14-.12.12-1.57-1.6-3.07-3.19-4.57-4.78-.13-.14-.2-.34-.28-.53.02-.02.07-.07.07-.07Z"/>
    <path class="cls-9" d="m372.64,114.69c1.5,1.58,3.01,3.16,4.5,4.84-.01.09-.06.15-.12.12-1.32-1.34-2.59-2.64-3.84-3.97-.25-.26-.42-.59-.61-.92.02-.02.07-.07.07-.08Z"/>
    <path class="cls-1" d="m71.94,94.19c.58.56,1.18,1.09,1.72,1.68.94,1.01,1.84,2.06,2.75,3.18,0,.09-.05.14-.12.12-1.45-1.5-2.83-2.98-4.21-4.46-.11-.12-.16-.28-.22-.45.02-.02.07-.07.07-.07Z"/>
    <path class="cls-1" d="m67.44,89.27c.79.79,1.59,1.56,2.35,2.37.6.64,1.15,1.32,1.71,2.08,0,.09-.05.14-.12.11-1.23-1.25-2.41-2.47-3.57-3.71-.2-.21-.32-.5-.46-.78.03-.02.08-.07.08-.07Z"/>
    <path class="cls-9" d="m344.71,105.33c-1.08-1.11-2.18-2.21-3.25-3.33-.3-.31-.56-.67-.82-1.11,0-.09.06-.15.12-.12,1.06,1.05,2.08,2.06,3.05,3.11.38.41.67.9.98,1.38-.02.02-.07.07-.07.07Z"/>
    <path class="cls-1" d="m77.67,100.34c.93.93,1.87,1.85,2.78,2.8.46.49.86,1.03,1.29,1.65,0,.09-.05.14-.12.12-1.34-1.38-2.62-2.74-3.9-4.1-.09-.09-.11-.24-.13-.39.03-.03.08-.08.08-.08Z"/>
    <path class="cls-1" d="m82.59,105.67c1.23,1.31,2.46,2.61,3.68,4.02-.01.09-.06.14-.12.11-1.14-1.17-2.23-2.3-3.31-3.44-.15-.16-.24-.39-.33-.61.03-.03.08-.08.08-.08Z"/>
    <path class="cls-8" d="m92.01,115.91c1.23,1.31,2.45,2.63,3.7,4.01.02.07-.03.11-.12.11-1.21-1.19-2.33-2.38-3.45-3.58-.11-.12-.15-.29-.21-.47.02-.02.07-.07.07-.07Z"/>
    <path class="cls-1" d="m63.32,84.78c.84.88,1.66,1.78,2.46,2.78-.01.09-.06.14-.12.11-.5-.48-.97-.91-1.38-1.39-.38-.45-.7-.95-1.04-1.43,0,0,.05-.05.08-.08Z"/>
    <path class="cls-1" d="m87.92,111.4c.77.79,1.55,1.59,2.28,2.44-.12.06-.2.06-.33,0-.72-.81-1.39-1.58-2.03-2.38.03-.03.08-.08.08-.08Z"/>
    <path class="cls-1" d="m82.57,64.34c-.48.56-.98,1.09-1.55,1.65-.07.02-.12-.03-.12-.12.53-.6,1.06-1.1,1.59-1.6,0,0,.05.05.08.07Z"/>
    <path class="cls-8" d="m90.8,114.67c.39.37.78.74,1.19,1.18.02.07-.03.12-.12.12-.45-.4-.81-.8-1.15-1.22.02-.02.07-.07.07-.07Z"/>
    <path class="cls-1" d="m102.4,43.42s.09.01.19.02c-.3.41-.66.81-1.09,1.24-.06.03-.11-.02-.12-.12.33-.44.67-.79,1.02-1.14Z"/>
    <path class="cls-9" d="m345.96,106.55c-.41-.35-.8-.72-1.22-1.16-.03-.06.02-.11.11-.12.45.39.82.79,1.18,1.2,0,0-.05.05-.08.08Z"/>
    <path class="cls-1" d="m66.63,88.44c.26.23.51.47.79.76.02.06-.03.11-.12.12-.32-.26-.54-.52-.74-.81.02-.02.07-.07.07-.07Z"/>
    <path class="cls-8" d="m82.51,126.23c-.14-.08-.27-.18-.41-.34-.02-.06.03-.1.11-.11.18.12.27.25.37.37,0,0-.05.05-.07.07Z"/>
    <path class="cls-1" d="m77.27,99.92c.12.1.24.2.38.36.02.06-.03.11-.12.12-.18-.12-.27-.25-.34-.4.02-.02.07-.07.07-.07Z"/>
    <path class="cls-8" d="m75.14,118.44c-.14-.08-.26-.18-.41-.34-.02-.06.03-.11.12-.11.18.12.27.25.36.38,0,0-.05.05-.07.07Z"/>
    <path class="cls-1" d="m76.86,99.51c.12.1.24.2.39.35.02.06-.03.11-.11.11-.18-.12-.27-.25-.35-.4.02-.02.07-.07.07-.07Z"/>
    <path class="cls-9" d="m377.15,119.6c.15.07.27.17.38.36,0,.09-.06.14-.12.12-.15-.15-.25-.27-.34-.4,0,0,.05-.05.07-.08Z"/>
    <path class="cls-1" d="m76.43,99.12c.15.08.27.18.41.34.02.06-.03.11-.11.11-.18-.12-.27-.25-.37-.37,0,0,.05-.05.07-.08Z"/>
    <path class="cls-9" d="m377.55,120.02c.15.07.27.17.39.35,0,.08-.05.13-.11.12-.16-.14-.25-.27-.35-.39,0,0,.05-.05.08-.08Z"/>
    <path class="cls-9" d="m377.96,120.43c.15.07.27.17.41.33.02.06-.03.11-.12.12-.18-.12-.27-.25-.37-.37,0,0,.05-.05.07-.07Z"/>
    <path class="cls-8" d="m54.25,96.32c-.15-.08-.27-.18-.41-.34-.02-.06.03-.11.12-.11.18.12.27.25.37.37,0,0-.05.05-.07.08Z"/>
    <path class="cls-9" d="m372.24,114.28c.12.1.24.2.38.36.02.06-.03.11-.11.12-.18-.12-.28-.25-.34-.4.03-.03.08-.08.08-.08Z"/>
    <path class="cls-8" d="m101.01,125.75c.15.07.27.17.39.36,0,.09-.06.13-.11.11-.15-.15-.25-.27-.35-.39,0,0,.05-.05.07-.07Z"/>
    <path class="cls-8" d="m101.41,126.17c.15.07.27.17.41.33.02.06-.03.11-.12.12-.18-.12-.27-.25-.36-.38,0,0,.05-.05.07-.07Z"/>
    <path class="cls-1" d="m71.52,93.79c.15.08.27.18.41.34.02.06-.03.11-.11.11-.18-.12-.27-.25-.36-.38,0,0,.05-.05.07-.07Z"/>
    <path class="cls-9" d="m384.1,126.99c.15.08.27.18.38.36,0,.08-.05.13-.11.12-.15-.14-.25-.27-.34-.4,0,0,.05-.05.07-.08Z"/>
    <path class="cls-9" d="m384.51,127.4c.15.07.27.17.39.35,0,.08-.05.14-.12.12-.16-.14-.25-.27-.35-.39,0,0,.05-.05.07-.07Z"/>
    <path class="cls-9" d="m384.92,127.81c.15.07.27.17.42.33.02.06-.03.11-.12.12-.18-.12-.28-.24-.38-.37,0,0,.05-.05.08-.08Z"/>
    <path class="cls-1" d="m66.21,88.04c.13.1.25.19.4.34.02.06-.03.11-.11.11-.18-.12-.28-.24-.35-.39.02-.02.07-.07.07-.07Z"/>
    <path class="cls-1" d="m65.79,87.64c.14.08.26.18.4.34.02.06-.03.11-.11.11-.18-.12-.27-.25-.36-.38,0,0,.05-.05.07-.07Z"/>
    <path class="cls-1" d="m81.76,104.86c.15.07.27.17.39.36,0,.09-.06.14-.12.12-.15-.15-.25-.27-.34-.4,0,0,.05-.05.07-.08Z"/>
    <path class="cls-9" d="m364.47,106.07c.12.1.24.2.36.38,0,.08-.06.14-.12.12-.15-.14-.25-.27-.32-.42.03-.03.08-.08.08-.08Z"/>
    <path class="cls-9" d="m363.64,105.25c.15.07.27.17.39.36,0,.09-.06.14-.11.11-.15-.15-.25-.27-.34-.4,0,0,.04-.05.07-.07Z"/>
    <path class="cls-9" d="m364.85,106.51c.15.07.27.18.38.36,0,.08-.05.13-.11.12-.16-.14-.25-.27-.35-.4,0,0,.05-.05.08-.08Z"/>
    <path class="cls-9" d="m365.25,106.92c.15.07.27.17.41.33.02.06-.03.11-.11.11-.18-.12-.28-.24-.37-.37,0,0,.05-.05.07-.07Z"/>
    <path class="cls-1" d="m86.28,109.76c.14.08.26.19.37.38,0,.09-.06.14-.12.12-.15-.15-.23-.29-.32-.42,0,0,.05-.05.07-.07Z"/>
    <path class="cls-1" d="m82.16,105.27c.14.08.26.18.4.34.02.06-.03.11-.12.12-.18-.12-.27-.25-.36-.38,0,0,.05-.05.08-.08Z"/>
    <path class="cls-1" d="m86.67,110.19c.14.08.26.18.38.36,0,.08-.05.13-.12.12-.16-.14-.25-.27-.34-.41,0,0,.05-.05.08-.08Z"/>
    <path class="cls-1" d="m87.07,110.61c.15.07.27.17.4.34,0,.08-.05.13-.11.12-.16-.14-.26-.26-.36-.39,0,0,.05-.05.08-.08Z"/>
    <path class="cls-1" d="m87.49,111.01c.15.07.27.17.41.33.02.06-.03.11-.12.12-.18-.12-.27-.25-.37-.37,0,0,.05-.05.07-.08Z"/>
    <path class="cls-9" d="m364.04,105.67c.15.08.27.18.41.33.02.06-.03.11-.12.12-.18-.12-.27-.25-.36-.38,0,0,.05-.05.07-.07Z"/>
    <path class="cls-9" d="m352.1,113.12c-.14-.08-.26-.18-.41-.34-.02-.06.03-.1.11-.11.18.12.27.25.37.38,0,0-.05.05-.07.08Z"/>
    <path class="cls-9" d="m370.59,112.64c.15.07.27.17.39.35,0,.08-.05.13-.11.11-.16-.14-.26-.27-.35-.39,0,0,.05-.05.07-.07Z"/>
    <path class="cls-9" d="m340.62,100.83c-.15-.08-.27-.18-.42-.34-.02-.06.03-.1.12-.11.18.12.28.24.37.37,0,0-.05.05-.07.08Z"/>
    <path class="cls-9" d="m371.01,113.05c.15.07.27.17.39.36,0,.09-.06.14-.12.12-.15-.15-.25-.27-.34-.4,0,0,.05-.05.07-.07Z"/>
    <path class="cls-9" d="m371.41,113.46c.15.07.27.17.38.36,0,.09-.06.14-.12.12-.15-.15-.24-.28-.34-.41,0,0,.05-.05.07-.08Z"/>
    <path class="cls-8" d="m89.92,113.9c.08,0,.16,0,.3,0,.09.08.12.15.14.31-.01.08-.06.13-.11.1-.14-.16-.23-.29-.32-.42Z"/>
    <path class="cls-9" d="m371.81,113.88c.15.07.27.18.41.34.02.06-.03.11-.12.12-.18-.12-.27-.25-.37-.38,0,0,.05-.05.08-.08Z"/>
    <path class="cls-8" d="m90.36,114.28c.15.07.27.17.42.33.02.06-.03.11-.11.11-.18-.12-.27-.25-.37-.37,0,0,.05-.05.07-.07Z"/>
    <path class="cls-3" d="m90.24,114.32c.15.15.25.28.4.42.42.42.78.82,1.2,1.24.14.17.18.35.29.47,1.11,1.2,2.24,2.38,3.42,3.6,1.16,1.27,2.25,2.51,3.36,3.74.61.68,1.26,1.32,1.96,2.01.16.15.26.27.41.42.15.15.24.28.4.42.86.94,1.66,1.85,2.45,2.77.3.35.59.7,1.01,1.2-.55.03-.88.07-1.2.07-5.28,0-10.57,0-15.85.02-.71,0-1.21-.21-1.69-.72-1.2-1.28-2.45-2.52-3.75-3.8-.16-.15-.25-.28-.41-.42-.46-.51-.84-1.03-1.27-1.49-1.86-1.96-3.75-3.91-5.69-5.88-.16-.15-.25-.28-.4-.43-.17-.18-.26-.36-.39-.5-2.3-2.42-4.61-4.83-6.98-7.27-.71-.8-1.32-1.6-2.02-2.33-1.61-1.69-3.25-3.35-4.95-5.04-.3-.34-.49-.7-.77-.99-1.76-1.85-3.54-3.69-5.38-5.56-.16-.15-.25-.28-.41-.42-1.17-1.25-2.27-2.48-3.39-3.7-.62-.68-1.26-1.33-1.9-1.99-.3-.31-.31-.3-1-.3,0,1.93,0,3.87,0,5.81v5.84c0,1.95,0,3.89,0,5.84v11.57c0,1.95,0,3.89,0,5.84,0,1.93.02,3.87-.02,5.76-.9.23-13.62.29-14.95.11-.02-.02-.04-.04-.06-.07-.02-.03-.04-.06-.05-.09-.03-.17-.07-.34-.07-.5,0-29.01,0-58.01,0-87.02,0-.13.02-.27.05-.4.01-.06.06-.11.14-.24h14.87c.03.46.08.89.08,1.31,0,5.8,0,11.6,0,17.4,0,6.35,0,12.69,0,19.04,0,.43.06.85.1,1.49,1.25-.78,2-1.76,2.84-2.73,1.21-1.27,2.41-2.46,3.58-3.68,1.62-1.69,3.22-3.39,4.82-5.1,1.6-1.71,3.19-3.43,4.8-5.14,1.44-1.53,2.92-3.02,4.36-4.55,2.28-2.41,4.54-4.85,6.82-7.27,2.4-2.54,4.82-5.06,7.23-7.6.82-.86,1.63-1.74,2.43-2.61.39-.42.82-.65,1.42-.65,5.39.02,10.78,0,16.16.01.23,0,.45.06.85.11-.26.4-.45.69-.68,1.04-.38.41-.72.76-1.08,1.18-.52.51-1.06.91-1.52,1.39-2.38,2.46-4.74,4.94-7.1,7.42-2.15,2.26-4.29,4.52-6.44,6.78-1.26,1.33-2.52,2.67-3.79,4.07-.55.57-1.08,1.08-1.63,1.65-.61.65-1.23,1.22-1.8,1.82-2.41,2.51-4.8,5.02-7.21,7.6-.59.63-1.18,1.18-1.74,1.76-2.23,2.32-4.44,4.65-6.65,6.99-.19.2-.6.39-.29.84.4.5.71,1.01,1.09,1.45.41.48.88.91,1.38,1.39.15.16.25.29.4.43.16.14.25.27.41.41.29.28.51.54.8.83.22.27.35.56.55.78,1.16,1.24,2.33,2.46,3.57,3.71.16.15.25.28.4.43.14.16.19.33.3.45,1.38,1.48,2.76,2.96,4.21,4.46.16.15.26.27.41.42.15.14.25.27.4.42.15.15.24.28.4.42.11.14.13.29.22.38,1.27,1.36,2.55,2.72,3.9,4.1.16.15.26.27.41.42.15.15.24.28.39.43.18.21.26.44.42.6,1.08,1.14,2.17,2.27,3.31,3.44.15.16.23.3.38.45.15.15.24.28.4.43.16.14.26.26.42.4.16.14.25.27.41.41.73.79,1.4,1.55,2.11,2.37.14.18.23.31.37.47Z"/>
    <path class="cls-6" d="m371.67,113.95c.15.15.25.27.4.42.16.14.25.27.41.41.27.31.45.64.69.91,1.25,1.32,2.52,2.63,3.84,3.97.16.15.25.28.4.43.16.14.25.27.41.41.15.14.25.27.4.41.16.19.22.39.36.53,1.77,1.87,3.54,3.72,5.38,5.6.16.15.25.28.41.42.16.14.25.27.41.41.16.14.25.27.41.41.5.61.94,1.21,1.41,1.85-.16.09-.29.23-.43.24-.85.08-1.7.19-2.54.2-4.61.06-9.21.08-13.82.13-.58,0-1.02-.12-1.44-.58-1.74-1.9-3.51-3.76-5.28-5.63-1.67-1.77-3.36-3.52-5.11-5.3-.71-.79-1.33-1.59-2.02-2.32-1.2-1.28-2.44-2.53-3.73-3.81-.16-.15-.25-.28-.41-.42-.46-.51-.83-1.04-1.26-1.5-1.45-1.56-2.93-3.09-4.47-4.65-.43-.42-.79-.82-1.22-1.24-.4-.47-.69-.96-1.07-1.37-.97-1.05-1.99-2.06-3.05-3.11-.16-.15-.25-.27-.41-.42.28-.11.63-.3.97-.3,5.45-.02,10.89,0,16.34-.02.56,0,.96.2,1.33.6,1.47,1.56,2.96,3.09,4.51,4.66.16.15.25.28.4.43.15.15.24.28.39.43.15.14.25.27.4.42.16.14.25.27.41.41.16.14.25.27.41.41.16.19.23.38.36.52,1.5,1.59,3,3.17,4.57,4.78.16.14.26.27.42.41.15.15.25.27.4.42.15.15.24.28.39.43Z"/>
  </g>
</svg>