<?xml version="1.0" encoding="utf-8"?>
<!-- Generator: Adobe Illustrator 27.9.4, SVG Export Plug-In . SVG Version: 9.03 Build 54784)  -->
<svg version="1.1" id="Layer_1" xmlns="http://www.w3.org/2000/svg" xmlns:xlink="http://www.w3.org/1999/xlink" x="0px" y="0px"
	 viewBox="0 0 122 80" style="enable-background:new 0 0 122 80;" xml:space="preserve">
<style type="text/css">
	.st0{clip-path:url(#SVGID_00000132774682297116042230000001553474196926136716_);}
	.st1{fill:#FFFFFF;}
</style>
<g>
	<g>
		<defs>
			<rect id="SVGID_1_" x="6.3" y="5" width="109.3" height="70"/>
		</defs>
		<clipPath id="SVGID_00000050664541156122377720000001374464031206790058_">
			<use xlink:href="#SVGID_1_"  style="overflow:visible;"/>
		</clipPath>
		<g style="clip-path:url(#SVGID_00000050664541156122377720000001374464031206790058_);">
			<path d="M105.9,5H15h-1c-0.7,0-1.4,0.1-2,0.2c-0.7,0.1-1.4,0.3-2,0.6C9.4,6.1,8.8,6.5,8.3,7S7.4,8.1,7.1,8.7
				c-0.3,0.6-0.5,1.3-0.6,2s-0.2,1.4-0.2,2.1c0,0.3,0,0.6,0,0.9v52.6c0,0.3,0,0.6,0,0.9c0,0.7,0.1,1.4,0.2,2.1s0.3,1.4,0.6,2
				c0.3,0.6,0.7,1.2,1.2,1.7s1,0.9,1.7,1.2c0.6,0.3,1.3,0.5,2,0.6s1.4,0.2,2,0.2h1h92h1c0.7,0,1.3-0.1,2-0.2s1.4-0.3,2-0.6
				c0.6-0.3,1.2-0.7,1.7-1.2s0.9-1.1,1.2-1.7s0.5-1.3,0.6-2s0.2-1.4,0.2-2.1c0-0.3,0-0.6,0-0.9V13.7c0-0.3,0-0.6,0-0.9
				c0-0.7-0.1-1.4-0.2-2.1c-0.1-0.7-0.3-1.3-0.6-1.9c-0.3-0.6-0.7-1.2-1.2-1.7s-1-0.9-1.7-1.2c-0.6-0.3-1.3-0.5-2-0.6
				s-1.3-0.2-2-0.2h-1L105.9,5z"/>
		</g>
	</g>
</g>
<path class="st1" d="M105.9,7.3h2c0.6,0,1.1,0.1,1.7,0.1c0.5,0.1,0.9,0.2,1.3,0.4c0.4,0.2,0.8,0.5,1.1,0.8s0.6,0.7,0.8,1.1
	c0.2,0.4,0.4,0.9,0.4,1.3c0.1,0.6,0.1,1.1,0.1,1.7c0,0.3,0,0.6,0,0.9v51.5c0,0.4,0,0.7,0,1.1s0,0.6,0,0.9c0,0.6-0.1,1.1-0.1,1.7
	c-0.1,0.5-0.2,0.9-0.4,1.3s-0.5,0.8-0.8,1.1c-0.3,0.3-0.7,0.6-1.1,0.8c-0.4,0.2-0.8,0.4-1.3,0.4c-0.6,0.1-1.1,0.1-1.7,0.1H14.1
	c-0.6,0-1.1-0.1-1.7-0.2c-0.5-0.1-0.9-0.2-1.3-0.4c-0.4-0.2-0.8-0.5-1.1-0.8c-0.3-0.3-0.6-0.7-0.8-1.1c-0.2-0.4-0.4-0.9-0.4-1.3
	c-0.1-0.6-0.1-1.1-0.1-1.7c0-0.3,0-0.6,0-0.9V13.7c0-0.3,0-0.6,0-0.9c0-0.6,0.1-1.1,0.1-1.7c0.1-0.5,0.2-0.9,0.4-1.3
	C9.4,9.4,9.7,9,10,8.7s0.7-0.6,1.1-0.8c0.4-0.2,0.9-0.3,1.3-0.4c0.6-0.1,1.1-0.1,1.7-0.1L105.9,7.3"/>
<path d="M36.2,28.5c1-1.2,1.5-2.8,1.4-4.4c-1.6,0.2-3,0.9-4,2.1s-1.6,2.7-1.5,4.3C33.7,30.5,35.2,29.8,36.2,28.5"/>
<path d="M37.6,30.8c-2.2-0.1-4.1,1.3-5.2,1.3s-2.7-1.2-4.5-1.2c-2.3,0.1-4.5,1.4-5.6,3.4C19.9,38.4,21.7,44.5,24,48
	c1.1,1.7,2.5,3.5,4.3,3.4s2.4-1.1,4.4-1.1s2.7,1.1,4.5,1.1s3-1.7,4.2-3.3c0.8-1.2,1.4-2.5,1.9-3.8c-2.2-1-3.6-3.1-3.6-5.5
	c0.1-2.1,1.2-4,2.9-5.1C41.4,31.9,39.5,30.9,37.6,30.8"/>
<path d="M51.5,39.3H56c3.4,0,5.3-1.8,5.3-5s-1.9-5-5.3-5h-4.5V39.3L51.5,39.3z M57,26.1c4.3-0.2,8,3.1,8.2,7.5c0,0.3,0,0.5,0,0.8
	c0.2,4.4-3.2,8.1-7.6,8.3c-0.3,0-0.5,0-0.8,0h-5.4v8.5h-3.9v-25L57,26.1z"/>
<path d="M78.1,44.3v-1.4l-4.5,0.3c-2.2,0.2-3.5,1.2-3.5,2.7s1.3,2.7,3.3,2.7c2.4,0.2,4.5-1.6,4.7-4.1C78,44.4,78,44.4,78.1,44.3
	L78.1,44.3z M66.3,45.9c0-3.2,2.4-5.2,6.8-5.4l5-0.3v-1.4c0-2-1.4-3.2-3.7-3.2s-3.5,1-3.8,2.7H67c0.2-3.3,3-5.7,7.5-5.7
	s7.2,2.3,7.2,6v12.6h-3.6v-3H78c-1.2,2.1-3.4,3.3-5.8,3.3C68.8,51.4,66.3,49.2,66.3,45.9z"/>
<path d="M85.2,57.8v-3c0.4,0.1,0.8,0.1,1.2,0.1c1.7,0,2.7-0.7,3.2-2.6l0.3-1.1l-6.6-18.3h4.1L92,47.8h0.1l4.6-14.9h4l-6.8,19.2
	c-1.6,4.4-3.4,5.8-7.2,5.8C86.2,57.9,85.7,57.9,85.2,57.8L85.2,57.8z"/>
</svg>
