<svg id="Layer_1" data-name="Layer 1" xmlns="http://www.w3.org/2000/svg" viewBox="0 0 59 36"><defs><style>.cls-1{fill:#055e7c;}.cls-1,.cls-2,.cls-3,.cls-4{fill-rule:evenodd;}.cls-2{fill:#00bcd4;}.cls-3{fill:#fff;}.cls-4{fill:#eb2227;}</style></defs><title>ic_ABA PAY</title><g id="Brand-Guideline-v2.0"><g id="_4" data-name="#4"><g id="Group-3"><g id="ic_ABA-PAY" data-name="ic ABA-PAY"><path id="Rectangle" class="cls-1" d="M6.26.29H52.74a6.21,6.21,0,0,1,3.33.58A3.88,3.88,0,0,1,57.7,2.5a6.19,6.19,0,0,1,.58,3.32V30.18a6.19,6.19,0,0,1-.58,3.32,3.88,3.88,0,0,1-1.63,1.63,6.21,6.21,0,0,1-3.33.58H6.26a6.21,6.21,0,0,1-3.33-.58A3.88,3.88,0,0,1,1.3,33.5a6.19,6.19,0,0,1-.58-3.32V5.82A6.19,6.19,0,0,1,1.3,2.5,3.88,3.88,0,0,1,2.93.87,6.21,6.21,0,0,1,6.26.29Z"/><g id="Group-14"><path id="Fill-4" class="cls-2" d="M48.14,16a1.22,1.22,0,0,0-.86.35l-4.94,4-.94-.74-4-3.19-.08-.06-.16-.12a1.24,1.24,0,0,0-.74-.27A1.21,1.21,0,0,0,35.64,18h0l0,0,4.59,3.75.81.65v3.28h0a1.21,1.21,0,0,0,2.42,0h0v-3.3l4.89-3.88,0-.05.15-.12a.34.34,0,0,0,.09-.08l.2-.16a1.3,1.3,0,0,0,.5-1A1.23,1.23,0,0,0,48.14,16"/><path id="Fill-6" class="cls-2" d="M36.55,25.07l-5.8-8.65a1.23,1.23,0,0,0-2.23.71,1.2,1.2,0,0,0,.24.72l2.75,3.93H26.29a1.68,1.68,0,0,0-1.15.63L23.3,25a1.18,1.18,0,1,0,1.83,1.49h0l1.66-2.19h6.46l1.33,2.07a1.19,1.19,0,0,0,1,.61,1.17,1.17,0,0,0,1.17-1.17,1.11,1.11,0,0,0-.2-.65.43.43,0,0,0,0-.07"/><path id="Fill-8" class="cls-2" d="M20.71,15.91h-9a1.23,1.23,0,0,0-1.23,1.22,1.25,1.25,0,0,0,.2.66,1.37,1.37,0,0,0,.72.51,1.06,1.06,0,0,0,.31,0h9.19a1,1,0,0,1,.89,1,1,1,0,0,1-1,1H11.63a1.16,1.16,0,0,0-1.17,1.21v4.2a1.22,1.22,0,0,0,2.43.05v-3h7.86a3.43,3.43,0,0,0,0-6.85"/><path id="Fill-10" class="cls-3" d="M11.91,11.74h1.18l-.59-1.8ZM13,9.1l1.54,4.22h-.92l-.29-.87H11.68l-.28.87h-.92L12,9.1Z"/><path id="Fill-12" class="cls-3" d="M17.64,12.55c.48,0,.7-.16.7-.54s-.22-.56-.71-.56h-1v1.1Zm0-1.82c.42,0,.62-.14.62-.46s-.2-.44-.62-.44h-1v.9ZM15.76,9.1h2c.88,0,1.33.38,1.33,1.06a.85.85,0,0,1-.5.87,1,1,0,0,1,.65,1c0,.81-.54,1.29-1.55,1.29H15.76Z"/><path id="Fill-14" class="cls-3" d="M21.55,11.74h1.18l-.59-1.8ZM22.64,9.1l1.53,4.22h-.91L23,12.45H21.32l-.28.87h-.92L21.63,9.1Z"/><polygon id="Fill-16" class="cls-4" points="24.57 10.03 25.39 10.03 25.39 8.26 24.57 8.26 24.57 10.03"/></g></g></g></g></g></svg>